<svg xmlns="http://www.w3.org/2000/svg" width="63" height="63" viewBox="0 0 63 63"><defs><style>.a{fill:#fc5a58;}.b{fill:#fff;}</style></defs><g transform="translate(-60 -577)"><circle class="a" cx="31.5" cy="31.5" r="31.5" transform="translate(60 577)"/><path class="b" d="M52.285,108.811A11.573,11.573,0,0,1,40.557,97.394a10.893,10.893,0,0,1,.167-1.934,7.831,7.831,0,0,0,7.733-7.726,7.436,7.436,0,0,0-.077-1.1,12.009,12.009,0,0,1,3.908-.647,11.417,11.417,0,1,1,0,22.826ZM40.723,95.459c-.07,0-.143,0-.21,0a7.734,7.734,0,1,1,7.863-8.833A11.532,11.532,0,0,0,40.723,95.459Zm-6.469,5.576A2.195,2.195,0,1,1,32,103.229,2.224,2.224,0,0,1,34.254,101.035Z" transform="translate(43 514)"/></g></svg>