<svg xmlns="http://www.w3.org/2000/svg" width="63" height="63" viewBox="0 0 63 63"><defs><style>.a{fill:#fc5a58;}.b{fill:#fff;}</style></defs><g transform="translate(-60 -1397)"><g transform="translate(0 -164)"><circle class="a" cx="31.5" cy="31.5" r="31.5" transform="translate(60 1561)"/></g><g transform="translate(-194.352 1281.726)"><path class="b" d="M395.147,213.147m-.947,0a.947.947,0,1,0,.947-.947A.947.947,0,0,0,394.2,213.147Z" transform="translate(-114.51 -76.404)"/><path class="b" d="M297.345,157.811l-1.411-1.127a7.892,7.892,0,0,1-2.977-6.191,8.07,8.07,0,0,0-8.061-8.061h-3.318v-1.046a4.738,4.738,0,1,0-1.893,0v1.046H276.84v-.947h-.947c-.525,0-.947.847-.947,1.9s.426,1.9.947,1.9h.947v-.947h2.845V145.5C277.148,146.56,274,151.4,274,154.758a6.636,6.636,0,0,0,13.272,0c0-3.361-3.148-8.2-5.69-9.263v-1.169H284.9a6.169,6.169,0,0,1,6.163,6.163,9.779,9.779,0,0,0,3.687,7.673l1.411,1.127a.932.932,0,0,0,.592.208.958.958,0,0,0,.743-.355A.943.943,0,0,0,297.345,157.811Zm-19.554-21.068a2.845,2.845,0,1,1,2.845,2.845A2.85,2.85,0,0,1,277.791,136.743Z" transform="translate(0)"/></g></g></svg>