<svg xmlns="http://www.w3.org/2000/svg" width="63" height="63" viewBox="0 0 63 63"><defs><style>.a{fill:#fbbf03;}.b{fill:#fff;stroke:rgba(0,0,0,0);stroke-miterlimit:10;}</style></defs><g transform="translate(-60 -1069)"><circle class="a" cx="31.5" cy="31.5" r="31.5" transform="translate(60 1069)"/><path class="b" d="M100.021,31.246a11.333,11.333,0,0,0,1.028-2.148c.67-2.064.357-3.1-1.352-4.44-.609-.479-1.225-.955-1.791-1.482a4.1,4.1,0,0,1-1.167-4.468c.056-.188.234-.413.076-.572-.19-.189-.42.017-.618.092a13.768,13.768,0,0,0-4.159,2.409,5.559,5.559,0,0,0-1.878,5.452c.32,2.067.7,2.734,2.74,5a6.054,6.054,0,0,1-1.363-.441,15.783,15.783,0,0,1-5.927-3.8,9.995,9.995,0,0,1-2.63-5.864,8.831,8.831,0,0,1,2.657-7.624,8.178,8.178,0,0,0,2.578-4.684c.008-.055.059-.1.139-.239a8.225,8.225,0,0,1,.883,3.376c.037.713,0,1.429.01,2.143,0,.6.117.666.629.359a10.03,10.03,0,0,0,3.06-3.2,15.489,15.489,0,0,0,2.431-9.738c-.02-.429-.205-.82-.28-1.372a8.192,8.192,0,0,1,2.085,1.508,20.864,20.864,0,0,1,6.054,10.441,38.43,38.43,0,0,1,.936,5.361c.022.184-.08.473.17.532.193.046.35-.176.508-.3a6.469,6.469,0,0,0,2.59-3.811c.006-.028.06-.047.133-.1a13.983,13.983,0,0,1,.8,2.425,16.769,16.769,0,0,1,.605,6.476,7.3,7.3,0,0,1-2.156,4.423,18.551,18.551,0,0,1-5.138,3.706c-.464.211-.94.392-1.41.587Z" transform="translate(-4.476 1084.877)"/></g></svg>