<svg xmlns="http://www.w3.org/2000/svg" width="63" height="63" viewBox="0 0 63 63"><defs><style>.a{fill:#f09a37;}.b{fill:#fff;}</style></defs><g transform="translate(-60 -1725)"><g transform="translate(0 -164)"><circle class="a" cx="31.5" cy="31.5" r="31.5" transform="translate(60 1889)"/></g><path class="b" d="M75.144,64a12.808,12.808,0,0,0,17.1,14.97A14.147,14.147,0,1,1,75.144,64Zm13.108,2.358a1.011,1.011,0,0,1,.777,1.657l-.062.067-4.339,4.338h3.624a1.01,1.01,0,0,1,1.006.913l0,.1a1.01,1.01,0,0,1-.913,1.006l-.1,0H82.189a1.011,1.011,0,0,1-.777-1.657l.062-.067,4.338-4.338H82.189a1.01,1.01,0,0,1-1.006-.913l0-.1a1.01,1.01,0,0,1,.913-1.006l.1,0Z" transform="translate(13.376 1678.513)"/></g></svg>