<svg xmlns="http://www.w3.org/2000/svg" width="63" height="63" viewBox="0 0 63 63"><defs><style>.a{fill:#fc5a58;}.b{fill:#fff;}</style></defs><g transform="translate(-60 -741)"><circle class="a" cx="31.5" cy="31.5" r="31.5" transform="translate(60 741)"/><path class="b" d="M134.069,162.737h-.082a9.2,9.2,0,0,0-5.9,2.208l-.061.053,0,0a9.311,9.311,0,0,0-6.039-2.258c-5.294,0-9.572,4.573-9.572,10.147a10.465,10.465,0,0,0,.6,3.487,13.582,13.582,0,0,0,1.232,2.563l.049.082.05.083.053.087.073.118.089.141.128.2.27.416.012.018a21.849,21.849,0,0,0,1.7,2.251l.082.1.083.1q.5.572,1.052,1.161l.106.112q.523.549,1.064,1.082l.117.115.178.173.12.116.121.116.122.116.061.058.123.117c1.283,1.215,2.651,2.408,4.037,3.547l.168.137.165.135.109.088.161.13.159.128.157.126.155.123.1.081.1.08.206.163.481.376.009.007a3.366,3.366,0,0,0,2.125.737h.027a3.381,3.381,0,0,0,2.029-.7l.033-.025.039-.03.162-.124.2-.153.133-.1.141-.11.108-.086.148-.118.114-.091.117-.093.119-.1.121-.1c.976-.787,1.993-1.643,3-2.54l.086-.077a38.289,38.289,0,0,0,6.43-6.965l.032-.049.037-.054.082-.126.1-.148.114-.177.065-.1.084-.133.041-.065.06-.1.039-.062.057-.092.037-.06.054-.089.035-.059.035-.058.051-.085.033-.056.032-.056.032-.055.031-.055.031-.054.045-.081.029-.053.029-.053.029-.053.028-.053.028-.053.027-.053.027-.052.027-.052.027-.052.026-.053.026-.053.013-.026.026-.053.025-.053.025-.053.025-.054.025-.054.037-.082.025-.055.025-.056.037-.084.025-.057.012-.029a10.529,10.529,0,0,0,.872-4.209c0-5.58-4.265-10.147-9.571-10.147Zm1.181,16.386h-2.2L130.9,183.27a1.368,1.368,0,0,1-2.546-.315l-1.75-7.39-1.239,2.752a1.368,1.368,0,0,1-1.248.807H120.8a1.368,1.368,0,1,1,0-2.737h2.431l2.528-5.615a1.368,1.368,0,0,1,2.579.246l1.828,7.72.837-1.613a1.368,1.368,0,0,1,1.215-.738h3.028a1.368,1.368,0,1,1,0,2.737Z" transform="translate(-36.414 595.263)"/></g></svg>