<svg xmlns="http://www.w3.org/2000/svg" width="63" height="63" viewBox="0 0 63 63"><defs><style>.a{fill:#46b4ff;}.b,.c{fill:#fff;}.b{opacity:0.3;}</style></defs><g transform="translate(-60 -905)"><circle class="a" cx="31.5" cy="31.5" r="31.5" transform="translate(60 905)"/><g transform="translate(506.475 991.866)"><path class="b" d="M-425.8,40.854a7.587,7.587,0,0,0,5.364,9.293,7.587,7.587,0,0,0,9.293-5.364A7.587,7.587,0,0,0-416.5,35.49h0A7.588,7.588,0,0,0-425.8,40.854Z" transform="translate(-5.02 -88.336)"/><path class="c" d="M-419.3,11.727A10.2,10.2,0,0,0-431.79,18.94a10.2,10.2,0,0,0,7.213,12.495,10.2,10.2,0,0,0,12.495-7.213h0A10.2,10.2,0,0,0-419.3,11.727Zm-.55,2.053a8.076,8.076,0,0,1,5.711,9.892,8.076,8.076,0,0,1-9.892,5.711,8.077,8.077,0,0,1-5.711-9.892,8.077,8.077,0,0,1,9.892-5.711Z" transform="translate(0 -68.651)"/><path class="c" d="M-396.1,87.647a1.063,1.063,0,0,1,.751,1.3,1.063,1.063,0,0,1-1.2.773l-.1-.021-3.885-1.041a1.062,1.062,0,0,1-.75-1.3,1.063,1.063,0,0,1,1.2-.773l.1.021Z" transform="translate(-25.435 -130.708)"/><path class="b" d="M-359.749-32.3a8.744,8.744,0,0,0,10.71,6.183,8.745,8.745,0,0,0,6.183-10.71,8.745,8.745,0,0,0-10.71-6.183,8.745,8.745,0,0,0-6.183,10.71Z" transform="translate(-59.498 -23.518)"/><path class="c" d="M-361.238-71.408a11.63,11.63,0,0,0-8.225,14.242,11.63,11.63,0,0,0,14.242,8.225A11.63,11.63,0,0,0-347-63.182a11.63,11.63,0,0,0-14.242-8.225Zm.55,2.053a9.5,9.5,0,0,1,11.641,6.72,9.5,9.5,0,0,1-6.72,11.641,9.5,9.5,0,0,1-11.641-6.72h0A9.5,9.5,0,0,1-360.688-69.355Z" transform="translate(-51.398)"/><path class="c" d="M-311.575,15.207a3.276,3.276,0,0,0,4.012,2.316,3.276,3.276,0,0,0,2.316-4.012h0" transform="translate(-99.503 -70.413)"/></g></g></svg>