<svg xmlns="http://www.w3.org/2000/svg" width="63" height="63" viewBox="0 0 63 63"><defs><style>.a{fill:#fbbf03;}.b{fill:#fff;}</style></defs><g transform="translate(-60 -1725)"><circle class="a" cx="31.5" cy="31.5" r="31.5" transform="translate(60 1725)"/><path class="b" d="M49.135,71.478a6.483,6.483,0,1,1,6.483-6.483A6.483,6.483,0,0,1,49.135,71.478Zm0-4.322A2.161,2.161,0,1,0,46.975,65,2.161,2.161,0,0,0,49.135,67.156Zm18.727,4.322a6.483,6.483,0,1,1,6.483-6.483,6.483,6.483,0,0,1-6.483,6.483Zm0-4.322A2.161,2.161,0,1,0,65.7,65,2.161,2.161,0,0,0,67.863,67.156ZM57.823,55.339l2.116,3.174v8.643H57.059v-7.2l-3.917-3.264a2.882,2.882,0,0,1-.4-4.412L56.811,48.2a2.881,2.881,0,0,1,4.075,0l2.037,2.037a10.039,10.039,0,0,0,5.643,2.845l-.014,2.9a12.91,12.91,0,0,1-7.665-3.709l-3.064,3.061Zm6.438-6.91a2.881,2.881,0,1,1,2.881-2.881A2.881,2.881,0,0,1,64.261,48.429Z" transform="translate(33.348 1699.333)"/></g></svg>