<svg xmlns="http://www.w3.org/2000/svg" width="63" height="63" viewBox="0 0 63 63"><defs><style>.a{fill:#1da772;}.b{fill:#fff;}</style></defs><g transform="translate(-60 -249)"><circle class="a" cx="31.5" cy="31.5" r="31.5" transform="translate(60 249)"/><path class="b" d="M93.837,91.146c-5.221,1.287-5.978,5.843-5.812,8.409a76.837,76.837,0,0,0,1.633,7.714l8.079-.526c-.108-2.528,1.026-4.987,1.955-7.03C100.79,97.293,98.95,89.878,93.837,91.146ZM89.88,109.125c.065.38.111.738.138,1.056.2,2.509,1.629,5.582,4.821,5.017s3.869-3.15,3.131-6.174c-.035-.142-.065-.28-.088-.423Zm22.993-22.1c-4.606-2.555-8.317,4.118-7.887,6.746.361,2.213.814,4.879.054,7.3l7.664,2.616a76.232,76.232,0,0,0,3.584-7.023C117.117,94.231,117.574,89.636,112.872,87.028Zm-8.924,16.419c-1.506,2.728-1.521,5.4,1.41,6.781s5.121-1.214,5.962-3.588c.108-.3.246-.63.407-.983l-7.584-2.593C104.082,103.194,104.017,103.32,103.948,103.447Z" transform="translate(-11.004 179.545)"/></g></svg>