<svg xmlns="http://www.w3.org/2000/svg" width="56" height="56" viewBox="0 0 56 56"><defs><style>.a{fill:#fff;stroke:#707070;opacity:0;}.b{fill:#fc602c;stroke:rgba(0,0,0,0);stroke-miterlimit:10;}.c{stroke:none;}.d{fill:none;}</style></defs><g transform="translate(-645 -252)"><g class="a" transform="translate(645 252)"><rect class="c" width="56" height="56"/><rect class="d" x="0.5" y="0.5" width="55" height="55"/></g><path class="b" d="M178.774,0a14.9,14.9,0,0,0-10.463,25.409l10.463,10.526,10.467-10.526A14.9,14.9,0,0,0,178.776,0Zm0,21.5a6.611,6.611,0,1,1,6.576-6.611,6.595,6.595,0,0,1-6.576,6.611h-.008ZM172.2,40.771c0,1.527,2.946,2.764,6.579,2.764s6.579-1.238,6.579-2.764-2.946-2.764-6.579-2.764S172.2,39.246,172.2,40.771Z" transform="translate(494.66 257.992)"/></g></svg>