<svg t="1701849301224" class="icon" viewBox="0 0 1024 1024" version="1.1" xmlns="http://www.w3.org/2000/svg" p-id="18856" width="64" height="64"><path d="M952.2 401.4H71.8C34.4 401.4 4 432 4 469.4V952c0 37.6 30.4 68 67.8 68h880.6c37.4 0 67.8-30.4 67.8-68V469.4c-0.2-37.4-30.6-68-68-68z" fill="#FF7058" p-id="18857"></path><path d="M626.6 66.6C597.8 26.8 556 4 512 4s-85.8 22.8-114.6 62.6L132.8 401.4H212L441 111.6l0.8-1C459.6 86 485.2 72 512 72s52.4 14 70.2 38.6l1.6 2.2L812 401.4h79.2L626.6 66.6z" fill="#FFD15C" p-id="18858"></path><path d="M447.4 137.8a64.8 64.6 90 1 0 129.2 0 64.8 64.6 90 1 0-129.2 0Z" fill="#40596B" p-id="18859"></path><path d="M111.8 712c0-21.6 3.2-39.8 9.6-54.4 4.8-10.8 11.4-20.6 19.6-29.2 8.4-8.6 17.4-15 27.4-19.2 13.2-5.6 28.4-8.4 45.6-8.4 31.2 0 56 9.8 74.8 29.2 18.6 19.4 28 46.4 28 81 0 34.2-9.2 61-27.8 80.4-18.6 19.4-43.4 29-74.4 29-31.4 0-56.4-9.6-75-28.8S111.8 745.8 111.8 712z m44-1.4c0 24 5.6 42.2 16.6 54.6 11 12.4 25 18.6 42.2 18.6s31-6.2 41.8-18.4 16.4-30.8 16.4-55.4c0-24.4-5.4-42.4-16-54.4s-24.8-18-42.4-18-31.8 6-42.6 18.2c-10.6 12.2-16 30.4-16 54.8zM350.2 816.8V604.6h68.4c26 0 42.8 1 50.8 3.2 12.2 3.2 22.2 10.2 30.4 20.8 8.2 10.6 12.2 24.4 12.2 41.4 0 13-2.4 24-7 32.8-4.8 8.8-10.6 15.8-18 21s-14.6 8.4-22.2 10c-10.2 2-25 3-44.2 3h-27.8v80h-42.6z m42.6-176.2v60.2h23.4c16.8 0 28-1.2 33.8-3.4 5.6-2.2 10.2-5.6 13.4-10.4s4.8-10.2 4.8-16.6c0-7.8-2.2-14-6.8-19.2s-10.2-8.2-17.2-9.4c-5-1-15.4-1.4-30.8-1.4h-20.6zM547.2 816.8V604.6H704v36h-114v47h106v35.8h-106.2v57.8H708v35.8h-160.8zM744.6 816.8V604.6H786l86.6 141.8v-141.8h39.6v212.2h-42.8l-85.2-138.4v138.4h-39.6z" fill="#FFFFFF" p-id="18860"></path></svg>