<svg t="1680782994410" class="icon" viewBox="0 0 1024 1024" version="1.1" xmlns="http://www.w3.org/2000/svg" p-id="12083" width="64" height="64"><path d="M898.21 262.44H726.89V215h-52v47.42h-310v-47.9H313v47.9H141.15a26.82 26.82 0 0 0-26.79 26.79v589.5a26.82 26.82 0 0 0 26.79 26.79h757.06A26.82 26.82 0 0 0 925 878.71V289.24a26.82 26.82 0 0 0-26.79-26.8zM873 853.54H166.32V314.41H313v47.74h52v-47.74h310v47.26h52v-47.26h146z" p-id="12084" fill="#007FFF"></path><path d="M654 566.37a26 26 0 0 0-3.89 5C629.6 502.83 566 452.76 490.93 452.76c-91.6 0-166.12 74.52-166.12 166.12S399.33 785 490.93 785a165 165 0 0 0 117.43-48.69 26 26 0 1 0-36.75-36.74 114.13 114.13 0 1 1 19.49-135.38 26 26 0 0 0-27.49 6 26.5 26.5 0 0 0-0.73 36.54l46.33 51.19q0.41 0.46 0.85 0.89a26.3 26.3 0 0 0 39.32-2.25l43.11-54.74a26.51 26.51 0 0 0-1.75-35.37 26 26 0 0 0-36.74-0.08z" p-id="12085" fill="#007FFF"></path></svg>