<svg t="1680783193850" class="icon" viewBox="0 0 1024 1024" version="1.1" xmlns="http://www.w3.org/2000/svg" p-id="14351" width="64" height="64"><path d="M51.114667 507.776a444.458667 444.458667 0 0 1 179.2-362.666667 33.365333 33.365333 0 1 1 42.666666 51.2 389.717333 389.717333 0 0 0-153.6 311.466667 396.8 396.8 0 1 0 793.6 0 384.213333 384.213333 0 0 0-153.6-311.466667 33.322667 33.322667 0 1 1 42.666667-51.2 456.533333 456.533333 0 0 1 179.2 362.666667 474.666667 474.666667 0 0 1-469.333333 460.8 461.482667 461.482667 0 0 1-460.8-460.8z m426.666666-145.066667v-273.066666a33.664 33.664 0 0 1 34.133334-34.133334 31.36 31.36 0 0 1 34.133333 34.133334v273.066666a36.693333 36.693333 0 0 1-34.133333 34.133334 33.792 33.792 0 0 1-34.133334-34.133334z" p-id="14352" fill="#007FFF"></path></svg>