<svg t="1700016530120" class="icon" viewBox="0 0 1024 1024" version="1.1" xmlns="http://www.w3.org/2000/svg" p-id="4095" width="64" height="64"><path d="M413.5 156.2c24.4-1.2 43.3-25 41.1-52-2.2-28.1-26.9-52.3-52.4-51.6-25.6 0.7-41.4 21.8-38.9 51.8 2.6 31.3 23.7 53.1 50.2 51.8z m-198.1 23.2c18.8 6.6 40.5-5.3 47-25.7 7.3-22.6-3.9-46.9-24.9-54.1-19.7-6.7-40.4 4.2-47.1 24.9-6.8 21.1 5.5 48.1 25 54.9z m84.4-26.7c20.3 4.1 41.2-11.1 45.1-33.1 4.4-24.4-10.6-48.1-33.3-52.6-21.3-4.2-41.3 10.1-45.4 32.3-4.2 22.8 12.4 49.1 33.6 53.4z" fill="#f56a0f" p-id="4096"></path><path d="M172.7 224.7c16.9-0.6 30.4-16.8 29.3-34.9-1.3-20.2-17.7-36-36.5-35.2-17.7 0.8-30.7 15.9-29.6 34.4 1 18.7 19.2 36.3 36.8 35.7z m-8.6 29.9c-3.4-16.7-12.2-31.6-35.4-29.5-21.7 1.9-27 17.3-25 33.8 2.1 16.9 12.7 29.9 33.4 29 21.8-1 27.6-15.9 27-33.3z m287.4 13.1c0 1.3 0 2.6-0.1 4-1.1 17.7-5.2 31.2-7.8 38.4-7.3 20.1-10.9 30.1-26.1 58.1-27.6 50.5-28.4 104.1-28.7 129.2-0.5 40.9-0.9 63.9 14.4 86.1 9.4 13.7 21 21.8 28.7 43.1 0.9 2.6 7.9 22.5 5.4 43.1-5.1 41.2-48.5 83.6-100.5 86.1-1.7 0.1-3.3 0.1-4.9 0.1-45.7 0-80.5-30.9-95.6-57.5-9.7-17.2-13.1-35.9-14.4-43.1-1.3-6.7-1.9-12.9-2.2-18.7-1-20.2 1.6-35.4 2.2-38.8 4.7-29.6-15.2-99.9-48.5-157.9-11.4-19.8-27.7-44.2-28.4-79.7 0 0-0.1-9.7 1.3-19.8 10.6-80.9 73.3-126.9 153-160 11.6-4.8 35.6-11.4 61.1-11.4 23.1 0 47.2 5.4 64.4 22.5 26.4 26.3 26.7 71.8 26.7 76.2z m165.2 52.2c2.4-30-13.4-51.1-38.9-51.8-25.5-0.7-50.2 23.5-52.4 51.6-2.2 26.9 16.7 50.8 41.1 52 26.4 1.1 47.6-20.7 50.2-51.8z m147.9 74.9C784 388 796.3 361 789.5 340c-6.7-20.6-27.5-31.6-47.1-24.9-21 7.2-32.1 31.5-24.9 54.1 6.5 20.3 28.3 32.2 47.1 25.6z m-84.4-26.7c21.2-4.3 37.7-30.7 33.6-53.4-4.1-22.3-24.1-36.6-45.4-32.3-22.7 4.5-37.7 28.2-33.3 52.6 3.8 21.9 24.7 37.3 45.1 33.1z" fill="#f56a0f" p-id="4097"></path><path d="M807.4 440c17.6 0.6 35.7-17 36.8-35.7 1.1-18.4-12-33.6-29.6-34.4-18.8-0.8-35.3 15-36.5 35.2-1.2 18.2 12.4 34.3 29.3 34.9z m8.4 30c-0.6 17.2 5.1 32.3 27 33.2 20.7 0.9 31.3-12.1 33.4-29 2-16.5-3.3-31.9-25-33.8-23.2-2-32 12.9-35.4 29.6zM835 575.7c-0.6 35.5-17 59.9-28.4 79.7-33.3 58.1-53.1 128.3-48.5 157.9 0.5 3.5 3.1 18.6 2.2 38.8-0.3 5.7-0.9 11.8-2.2 18.7-1.3 7.2-4.7 25.8-14.4 43.1-15.1 26.7-49.9 57.5-95.6 57.5-1.6 0-3.3-0.1-4.9-0.1-52-2.5-95.4-45-100.5-86.1-2.5-20.5 4.5-40.5 5.4-43.1 7.7-21.4 19.3-29.4 28.7-43.1 15.3-22.3 14.9-45.2 14.4-86.1-0.4-25.1-1.1-78.7-28.7-129.2-15.3-28-18.9-38-26.1-58.1-2.6-7.2-6.8-20.7-7.8-38.4-0.1-1.4-0.1-2.7-0.1-4 0-4.5 0.4-49.9 26.7-76.1 17.1-17.1 41.4-22.5 64.4-22.5 25.5 0 49.5 6.6 61.1 11.4 79.7 33 142.4 79 153 160 1.3 10 1.3 19.7 1.3 19.7z" fill="#f56a0f" p-id="4098"></path></svg>