<svg t="1700098404671" class="icon" viewBox="0 0 1024 1024" version="1.1" xmlns="http://www.w3.org/2000/svg" p-id="13890" width="64" height="64"><path d="M690.5 222.9c61.4 0 111.2-49.8 111.2-111.2S751.9 0.4 690.5 0.4 579.2 50.2 579.2 111.6 629 222.9 690.5 222.9z" p-id="13891" fill="#6B7B75"></path><path d="M1017.7 155.3c-12.8-21-40.1-27.7-61.1-14.9-160.8 97.7-281 127.2-356.8 87.6-18.4-9.6-32.2-22.2-46.8-35.6-23.9-21.9-51.1-46.6-97.2-57.3-91.5-21.1-195.6 27.8-309.1 146-17 17.7-16.5 45.9 1.2 62.9 8.6 8.3 19.8 12.4 30.9 12.4 11.7 0 23.3-4.6 32.1-13.7 89-92.6 166.7-134.5 224.8-121 23.4 5.4 37.6 18.4 57.4 36.4 0.3 0.3 0.7 0.6 1 0.9L315.7 531.7c-11.5 17.5-7.6 39.9 7.1 53.7-23.8 32-60.2 66.7-113.8 84.7-63.8 21.6-121.5 9.1-150.1-0.2-23.5-7.5-48.5 5.3-56 28.7-7.6 23.4 5.3 48.5 28.6 56 23 7.5 59.9 16.3 104.2 16.3 30.9 0 65.5-4.3 101.7-16.5 75.9-25.6 126.5-74.9 158.8-119.3l26 17c11.9 7.8 26.1 8.1 38.4 3.3 1.5 1.4 2.5 3.2 4.2 4.4 65.5 45.5 121.6 101.6 166.8 166.8 35.5 51.2 63.5 107.3 83.4 166.8 6.2 18.6 23.6 30.4 42.2 30.4 4.7 0 9.4-0.8 14.1-2.3 23.3-7.8 35.8-33 28.1-56.3-22.5-67.4-54.4-131-94.6-189.2-51.2-73.9-114.8-137.5-189.1-189.1l162.4-248.3c1-1.5 1.2-3.2 1.9-4.8 88.7-1.2 195.4-40.1 322.8-117.4 21-12.7 27.7-40.1 14.9-61.1z" p-id="13892" fill="#6B7B75"></path></svg>