<svg xmlns="http://www.w3.org/2000/svg" width="56" height="56" viewBox="0 0 56 56"><defs><style>.a,.b{fill:#fff;}.a{stroke:#707070;opacity:0;}.c{stroke:none;}.d{fill:none;}</style></defs><g transform="translate(-531 -1509)"><g class="a" transform="translate(531 1509)"><rect class="c" width="56" height="56"/><rect class="d" x="0.5" y="0.5" width="55" height="55"/></g><g transform="translate(539.979 1514.684)"><path class="b" d="M172.427,88.116a12.882,12.882,0,0,0-2.494-2.517V70.429a7.84,7.84,0,0,0-15.678,0V85.6a12.922,12.922,0,0,0,6,23.067,12.417,12.417,0,0,0,1.847.139,12.713,12.713,0,0,0,7.712-2.586A12.937,12.937,0,0,0,172.427,88.116ZM162.083,65.534a4.9,4.9,0,0,1,4.9,4.9V87.193l.093.046a9.973,9.973,0,1,1-9.975,0l.092-.046V70.429A4.943,4.943,0,0,1,162.083,65.534ZM186.42,69.99a1.439,1.439,0,0,1-1.432,1.432H174.806a1.432,1.432,0,0,1,0-2.863h10.183A1.439,1.439,0,0,1,186.42,69.99Zm0,6.789a1.439,1.439,0,0,1-1.432,1.431H174.806a1.42,1.42,0,0,1-1.385-1.455,1.4,1.4,0,0,1,1.385-1.385h10.183A1.4,1.4,0,0,1,186.42,76.779Zm0,6.419a1.439,1.439,0,0,1-1.432,1.431H174.806a1.432,1.432,0,0,1-.046-2.863h10.229A1.424,1.424,0,0,1,186.42,83.2Z" transform="translate(-149.166 -62.67)"/><path class="b" d="M326.29,253.847a4.295,4.295,0,1,1-5.957-3.948V230.526a1.663,1.663,0,1,1,3.325,0V249.9A4.28,4.28,0,0,1,326.29,253.847Z" transform="translate(-309.049 -220.332)"/></g></g></svg>