<svg xmlns="http://www.w3.org/2000/svg" width="40" height="40" viewBox="0 0 40 40"><defs><style>.a,.c{fill:#fff;}.a{stroke:#707070;opacity:0;}.b{fill:#1da772;}.d{stroke:none;}.e{fill:none;}</style></defs><g transform="translate(-356 -1540)"><g class="a" transform="translate(356 1540)"><rect class="d" width="40" height="40"/><rect class="e" x="0.5" y="0.5" width="39" height="39"/></g><g transform="translate(282.709 1457.8)"><path class="b" d="M144.4,126.194c-.118.725-4.79,6.739-6.947,9.229a90.636,90.636,0,0,1-8.863,8.5C127,145,122.663,145.6,120.8,145.6c-2.157,0-4.073,0-5.149-.6s-2.232-4.112-.585-5.476c1.177-.976,3.427-1.6,5.182-3.452a14.9,14.9,0,0,0,4.152-7.245c.721-3.237.718-8.264,1.439-8.626s2.648.632,3.276,1.758a2.548,2.548,0,0,0,3.552.757c2.157-1.2,2.354-1.855,2.275-3.355-.122-2.314-.2-2.289.477-2.515,1.8-.6,4.912,2.157,6.348,3.832S144.524,125.469,144.4,126.194Z" transform="translate(-36.666 -30.723)"/><path class="b" d="M99.752,86.558a6.971,6.971,0,0,1,1.923,1.084,17.081,17.081,0,0,1,2.619,2.451,13.016,13.016,0,0,1,1.672,2.7,10.7,10.7,0,0,1,.718,1.844c-.287.481-1.08,1.643-2.759,3.829-1.489,1.952-3.143,4.008-4.213,5.243-1,1.159-2.871,3.061-4.991,5.085a54.633,54.633,0,0,1-4.127,3.689,10.938,10.938,0,0,1-3.441,1.077,24.212,24.212,0,0,1-3.958.438h-.086c-1.033,0-2.1,0-2.982-.075a4.624,4.624,0,0,1-1.6-.341,2.525,2.525,0,0,1-.441-.8,4.239,4.239,0,0,1-.287-1.486,1.366,1.366,0,0,1,.305-.965,10.143,10.143,0,0,1,1.568-.937,14.8,14.8,0,0,0,4.08-2.867,22.242,22.242,0,0,0,2.817-3.556,15.5,15.5,0,0,0,2-4.895,47.62,47.62,0,0,0,.714-5.131c.086-.854.169-1.661.262-2.314.018-.122.036-.233.05-.334.075.039.154.086.24.136a2.563,2.563,0,0,1,.829.764,3.976,3.976,0,0,0,1.475,1.482,4.266,4.266,0,0,0,2.121.56,4.771,4.771,0,0,0,2.325-.624A6.791,6.791,0,0,0,99.256,90.4a4.624,4.624,0,0,0,.553-2.813c-.014-.269-.029-.51-.039-.725-.007-.1-.014-.2-.018-.3M99.321,84.9a1.826,1.826,0,0,0-.581.09c-.725.24-.639.212-.51,2.677.083,1.593-.129,2.293-2.422,3.567a3.216,3.216,0,0,1-1.561.427,2.528,2.528,0,0,1-2.218-1.231,4.394,4.394,0,0,0-3.09-1.952.907.907,0,0,0-.4.079c-.764.384-.764,5.734-1.529,9.175a15.835,15.835,0,0,1-4.414,7.7c-1.866,1.97-4.256,2.637-5.508,3.671-1.751,1.453-.52,5.189.624,5.824s3.133.639,5.39.639h.086c1.977,0,6.592-.642,8.282-1.783a96.313,96.313,0,0,0,9.43-9.046c2.293-2.648,7.263-9.046,7.388-9.818s-1.274-4.073-2.8-5.856c-1.382-1.615-4.223-4.166-6.168-4.166Z"/><path class="c" d="M435.29,454.215a.789.789,0,0,1,0-1.579l6.818-.036h0a.789.789,0,0,1,0,1.579l-6.818.036Zm-3.3,4.091a.789.789,0,0,1,0-1.579l6.818-.036h0a.789.789,0,0,1,0,1.579l-6.818.036Z" transform="translate(-342.245 -354.506)"/><path class="b" d="M441.928,469.788a.789.789,0,0,1,0-1.579l7.894-.036a.789.789,0,1,1,.007,1.579l-7.894.036Zm3.588-5.239a.789.789,0,0,1-.007-1.579l4.306-.036h.007a.789.789,0,0,1,.007,1.579l-4.306.036Z" transform="translate(-342.245 -354.506)"/></g></g></svg>