<svg xmlns="http://www.w3.org/2000/svg" width="46" height="46" viewBox="0 0 46 46"><defs><style>.a{fill:#fff;stroke:#707070;opacity:0;}.b,.d{fill:none;}.b{stroke:#333;stroke-width:1.5px;}.c{stroke:none;}</style></defs><g transform="translate(-614 -2971)"><g class="a" transform="translate(614 2971)"><rect class="c" width="46" height="46"/><rect class="d" x="0.5" y="0.5" width="45" height="45"/></g><path class="b" d="M160.376,90.553h-6.7a11.306,11.306,0,0,0-11.289,11.3v.67c0,3.258,4.982,3.258,11.289,3.258h6.7c6.058,0,11.29,0,11.29-3.258v-.67a11.308,11.308,0,0,0-11.29-11.3Zm-3.684-.862a8.955,8.955,0,1,0-8.941-8.955,8.958,8.958,0,0,0,8.941,8.955Zm0,0" transform="translate(480.112 2905.22)"/></g></svg>