<svg t="1702292606442" class="icon" viewBox="0 0 1024 1024" version="1.1" xmlns="http://www.w3.org/2000/svg" p-id="9403" width="64" height="64"><path d="M511 513m-429 0a429 429 0 1 0 858 0 429 429 0 1 0-858 0Z" fill="#C45BDD" p-id="9404"></path><path d="M614.21 694.6a23 23 0 0 0-26.68-18.67L433.83 703a23 23 0 0 0-18.68 26.67 23 23 0 0 0 26.67 18.68l153.71-27.1a23 23 0 0 0 18.68-26.68zM560.71 755.83c-27.27 4.44-61.93 10.9-97.12 16.89a9 9 0 0 0-6.31 13.46 61.71 61.71 0 0 0 53.27 30.52c29.87 0 54.78-21.93 60.5-50.29a9 9 0 0 0-10.34-10.58zM504.28 209a200.4 200.4 0 0 0-140.63 343.18 109.78 109.78 0 0 1 30 53.13l10.56 45.18A32.35 32.35 0 0 0 441.12 675l148.35-25.3a32.35 32.35 0 0 0 26.33-25.86l3.73-19.71a110.08 110.08 0 0 1 29.13-55.74 199.7 199.7 0 0 0 56-139C704.7 298.73 615 209 504.28 209z" fill="#FFFFFF" p-id="9405"></path></svg>