<svg xmlns="http://www.w3.org/2000/svg" width="63" height="63" viewBox="0 0 63 63"><defs><style>.a{fill:#f09a37;}.b{fill:#fff;}</style></defs><g transform="translate(-50 -510)"><circle class="a" cx="31.5" cy="31.5" r="31.5" transform="translate(50 510)"/><path class="b" d="M152.83,85.085a1.292,1.292,0,0,1,.766.206,3.226,3.226,0,0,1-1.489-2.728v-6.4a9.873,9.873,0,0,0-7.943-9.571v-.232A2.16,2.16,0,0,0,142,64.2h0a2.165,2.165,0,0,0-2.165,2.162v.225a9.873,9.873,0,0,0-7.943,9.574v6.405a3.24,3.24,0,0,1-1.493,2.728,1.263,1.263,0,0,1,.766-.206,1.441,1.441,0,0,0-.106,2.879h21.766a1.441,1.441,0,0,0,.006-2.882ZM142,93.011a3.606,3.606,0,0,0,3.609-3.6h-7.222A3.607,3.607,0,0,0,142,93.011Z" transform="translate(-60.67 462.8)"/></g></svg>