<svg xmlns="http://www.w3.org/2000/svg" width="655.125" height="86" viewBox="0 0 655.125 86"><defs><style>.a{opacity:0.7;}.b,.d{opacity:0.1;}.c,.d,.e,.f{fill:#fff;}.e{opacity:0.3;}.f{opacity:0.2;}</style></defs><g class="a" transform="translate(-47.437 -208)"><g class="b" transform="translate(561.615 208)"><path class="c" d="M140.948,57.339V28.667A7.167,7.167,0,0,0,133.78,21.5h-7.167V7.167A7.167,7.167,0,0,0,119.446,0H7.163A7.165,7.165,0,0,0,0,7.167V78.839A7.165,7.165,0,0,0,7.167,86h112.28a7.167,7.167,0,0,0,7.167-7.167V64.5h7.165a7.167,7.167,0,0,0,7.167-7.163ZM117.054,72.862a3.584,3.584,0,0,1-3.592,3.584H13.146a3.584,3.584,0,0,1-3.592-3.584V13.14a3.584,3.584,0,0,1,3.584-3.584H113.463a3.586,3.586,0,0,1,3.582,3.582Z"/><path class="c" d="M180.44,223.449a5.837,5.837,0,0,1-5.825-5.825v-46.6a5.837,5.837,0,0,1,5.825-5.825H265.49a5.837,5.837,0,0,1,5.825,5.825v46.6a5.837,5.837,0,0,1-5.825,5.825Zm50.858-42.5h-2.791a13.392,13.392,0,0,0-13.335,12.329h-8.616a1.073,1.073,0,0,0,0,2.145h8.622A13.392,13.392,0,0,0,228.508,207.7H231.3a2.474,2.474,0,0,0,2.47-2.47V202.39h5.469a1.073,1.073,0,0,0,0-2.145h-5.459V188.453h5.589a1.073,1.073,0,0,0,0-2.145h-5.589v-2.891A2.474,2.474,0,0,0,231.3,180.947Z" transform="translate(-159.95 -151.321)"/></g><g class="b" transform="translate(188.385 294) rotate(180)"><path class="c" d="M140.948,57.339V28.667A7.167,7.167,0,0,0,133.78,21.5h-7.167V7.167A7.167,7.167,0,0,0,119.446,0H7.163A7.165,7.165,0,0,0,0,7.167V78.839A7.165,7.165,0,0,0,7.167,86h112.28a7.167,7.167,0,0,0,7.167-7.167V64.5h7.165a7.167,7.167,0,0,0,7.167-7.163ZM117.054,72.862a3.584,3.584,0,0,1-3.592,3.584H13.146a3.584,3.584,0,0,1-3.592-3.584V13.14a3.584,3.584,0,0,1,3.584-3.584H113.463a3.586,3.586,0,0,1,3.582,3.582Z"/><path class="c" d="M180.44,223.449a5.837,5.837,0,0,1-5.825-5.825v-46.6a5.837,5.837,0,0,1,5.825-5.825H265.49a5.837,5.837,0,0,1,5.825,5.825v46.6a5.837,5.837,0,0,1-5.825,5.825Zm50.858-42.5h-2.791a13.392,13.392,0,0,0-13.335,12.329h-8.616a1.073,1.073,0,0,0,0,2.145h8.622A13.392,13.392,0,0,0,228.508,207.7H231.3a2.474,2.474,0,0,0,2.47-2.47V202.39h5.469a1.073,1.073,0,0,0,0-2.145h-5.459V188.453h5.589a1.073,1.073,0,0,0,0-2.145h-5.589v-2.891A2.474,2.474,0,0,0,231.3,180.947Z" transform="translate(-159.95 -151.321)"/></g><path class="d" d="M270.762,102.457l-20.693,17.852,11.092,3.537L252.5,137.39l22.14-16.4-11.631-3.424" transform="translate(-47.069 131.077)"/><path class="e" d="M270.762,102.457l-20.693,17.852,11.092,3.537L252.5,137.39l22.14-16.4-11.631-3.424" transform="translate(207.645 131.077)"/><path class="f" d="M270.762,102.457l-20.693,17.852,11.092,3.537L252.5,137.39l22.14-16.4-11.631-3.424" transform="translate(-13.068 131.077)"/><path class="f" d="M270.762,102.457l-20.693,17.852,11.092,3.537L252.5,137.39l22.14-16.4-11.631-3.424" transform="translate(241.646 131.077)"/><path class="e" d="M270.762,102.457l-20.693,17.852,11.092,3.537L252.5,137.39l22.14-16.4-11.631-3.424" transform="translate(20.932 131.077)"/><path class="d" d="M270.762,102.457l-20.693,17.852,11.092,3.537L252.5,137.39l22.14-16.4-11.631-3.424" transform="translate(275.646 131.077)"/></g></svg>