<svg xmlns="http://www.w3.org/2000/svg" width="63" height="63" viewBox="0 0 63 63"><defs><style>.a{fill:#6e7cff;}.b{fill:#fff;}</style></defs><g transform="translate(-50 -901)"><circle class="a" cx="31.5" cy="31.5" r="31.5" transform="translate(50 901)"/><g transform="translate(-141.712 908.093)"><path class="b" d="M410.958,168.807m-.9,0a.9.9,0,1,0,.9-.9A.9.9,0,0,0,410.061,168.807Z" transform="translate(-192.652 -153.466)"/><path class="b" d="M234.577,35.261l-1.383-1.106a7.739,7.739,0,0,1-2.9-6.085,7.929,7.929,0,0,0-7.929-7.929h-3.227V19.126a4.656,4.656,0,1,0-1.844,0v1.015h-2.812v-.923h-.922c-.507,0-.923.83-.923,1.844s.415,1.844.923,1.844h.922v-.922h2.812v1.153c-2.489,1.06-5.578,5.808-5.578,9.081a6.5,6.5,0,0,0,13,.046c0-3.319-3.088-8.067-5.577-9.081V22.03h3.227a6.06,6.06,0,0,1,6.039,6.039,9.661,9.661,0,0,0,3.641,7.56l1.382,1.106a.93.93,0,0,0,.6.184.96.96,0,0,0,.737-.368A.949.949,0,0,0,234.577,35.261ZM215.4,14.563a2.812,2.812,0,1,1,2.812,2.811A2.853,2.853,0,0,1,215.4,14.563Z"/></g></g></svg>