<svg xmlns="http://www.w3.org/2000/svg" width="63" height="63" viewBox="0 0 63 63"><defs><style>.a{fill:#46b4ff;}.b{fill:#fff;}</style></defs><g transform="translate(-50 -1062)"><g transform="translate(0 280)"><circle class="a" cx="31.5" cy="31.5" r="31.5" transform="translate(50 782)"/></g><path class="b" d="M75.5,10.461l-7.828,1.912c-2.783.458-1.929-1.732-1.929-1.732l.96-2.229c-11.665-4.726-15.486,4.323-15.486,4.323C54.645-3.026,69.072,3.008,69.074,3.008l.945-2.24c.89-1.547,2.21-.245,2.21-.245L76.49,8.36A1.446,1.446,0,0,1,75.5,10.461Zm-22.481,8.13,7.78-2.114c2.771-.531,1.968,1.682,1.968,1.682l-.9,2.251c11.776,4.425,15.376-4.719,15.376-4.719C74.194,31.538,59.624,25.875,59.624,25.878l-.892,2.259a1.329,1.329,0,0,1-2.2.308l-4.456-7.73A1.449,1.449,0,0,1,53.018,18.591Z" transform="translate(16.785 1078.989)"/></g></svg>