<svg xmlns="http://www.w3.org/2000/svg" width="63" height="63" viewBox="0 0 63 63"><defs><style>.a{fill:#fbbf03;}.b{fill:#fff;}</style></defs><g transform="translate(-50 -391)"><circle class="a" cx="31.5" cy="31.5" r="31.5" transform="translate(50 391)"/><path class="b" d="M34.575,8.428h7.406V3.61H34.575V0L28.362,6.026l6.227,6.011V8.428ZM39.508,21.1c-3.926-3.164-5.019-1.611-6.8.173-1.251,1.237-4.386-1.352-7.119-4.07s-5.321-5.868-4.07-7.1c1.783-1.783,3.336-2.876.173-6.8s-5.264-.92-6.989.805c-1.985,1.985-.1,9.405,7.234,16.74s14.755,9.218,16.754,7.234C40.414,26.347,43.434,24.247,39.508,21.1Zm0,0" transform="translate(53.039 408)"/></g></svg>