<svg xmlns="http://www.w3.org/2000/svg" width="63" height="63" viewBox="0 0 63 63"><defs><style>.a{fill:#1da772;}.b,.c{fill:#fff;}.b{opacity:0.8;}</style></defs><g transform="translate(-50 -1020)"><circle class="a" cx="31.5" cy="31.5" r="31.5" transform="translate(50 1020)"/><g transform="translate(6.119 3.49)"><path class="b" d="M16.268,193.586l1.349-.618A12.522,12.522,0,0,1,23.032,192c4.954,0,4.954,1.3,5.2,2.294a3.776,3.776,0,0,1,0,1.7,1.194,1.194,0,0,1-.117.326c.612.177.647.127,1.015.506.622.64.449,2.241.211,2.846a2.106,2.106,0,0,1-.368.624c.807.18,1.848.18,1.848,2.219a3.113,3.113,0,0,1-.345,1.842,2.082,2.082,0,0,1-.288.326c1.463.2,1.864.722,1.829,2.241s.035,2.466-1.808,2.9a6.6,6.6,0,0,1-1.681.31c-.831,2.24-4.119,3.482-6.866,3.684-.133.01-.27.015-.409.015-3.209,0-7.529-2.58-8.224-3.081l-.178-.131-.736-.562a11.856,11.856,0,0,0-2.592-1.32H0v-13.4H8.282a3.66,3.66,0,0,0,1.091-.184l.257-.115a14.665,14.665,0,0,1,3-.326A11.432,11.432,0,0,0,16.268,193.586Z" transform="translate(59 845)"/><path class="c" d="M106.667,298.667H112v13.342h-5.337Z" transform="translate(-44.331 741.669)"/><path class="c" d="M26.67,346.67m-5.337,0a5.337,5.337,0,1,0,5.337-5.337A5.337,5.337,0,0,0,21.333,346.67Z" transform="translate(38.334 700.336)"/><path class="a" d="M106.667,490.667H110V492h-3.335Z" transform="translate(-44.331 555.673)"/><path class="a" d="M170.667,405.333H172v4h-1.334Z" transform="translate(-106.33 638.338)"/></g></g></svg>