<svg xmlns="http://www.w3.org/2000/svg" width="63" height="63" viewBox="0 0 63 63"><defs><style>.a{fill:#1da772;}.b{fill:#fff;}</style></defs><g transform="translate(-50 -1181)"><g transform="translate(0 280)"><circle class="a" cx="31.5" cy="31.5" r="31.5" transform="translate(50 901)"/></g><g transform="translate(-60 1091.6)"><path class="b" d="M525.205,110.981l-4.581-4.581-1.536,1.536,3.5,3.5h-6.279A4.325,4.325,0,0,0,512,115.751v2.156a4.325,4.325,0,0,0,4.312,4.312h2.156v-2.156h-2.156a2.162,2.162,0,0,1-2.156-2.156v-2.156a2.162,2.162,0,0,1,2.156-2.156h6.279l-3.5,3.5,1.536,1.536,4.581-4.581,1.536-1.536Z" transform="translate(-371.064 0)"/><path class="b" d="M138.78,138.78V128H128v28.027h25.871v-10.78h-8.624A6.452,6.452,0,0,1,138.78,138.78Zm4.312,12.936h-8.624V149.56h8.624Zm4.312,0h-2.156V149.56H147.4Z" transform="translate(0 -20.872)"/></g></g></svg>