<svg xmlns="http://www.w3.org/2000/svg" width="63" height="63" viewBox="0 0 63 63"><defs><style>.a{fill:#fc5a58;}.b{fill:#fff;}</style></defs><g transform="translate(-50 -629)"><circle class="a" cx="31.5" cy="31.5" r="31.5" transform="translate(50 629)"/><path class="b" d="M23.6,20.939l-21.321.028A2.279,2.279,0,0,1,0,18.692V2.275A2.279,2.279,0,0,1,2.275,0H24.217a2.279,2.279,0,0,1,2.276,2.275V8.436q0,.473-.122,9.759A2.779,2.779,0,0,1,23.6,20.939ZM11.59,12.8a2.257,2.257,0,0,0,1.593.65,2.161,2.161,0,0,0,1.57-.653L24.7,2.977a.931.931,0,0,0,0-1.317.956.956,0,0,0-1.331,0L13.42,11.481a.38.38,0,0,1-.5,0l-9.926-9.8a.956.956,0,0,0-1.33,0A.931.931,0,0,0,1.663,3Zm14.522,5.039-.581-1.316V14.645a3.042,3.042,0,0,0-1.934-2.8,1.056,1.056,0,0,0-1.063-.967,1.07,1.07,0,0,0-1.064.967,3.015,3.015,0,0,0-1.933,2.8v1.876l-.581,1.315a.556.556,0,0,0,.039.521.543.543,0,0,0,.464.252h6.149a.545.545,0,0,0,.464-.25.559.559,0,0,0,.039-.523Zm-3.578,2.029A.956.956,0,0,0,23.5,18.9H21.566a.957.957,0,0,0,.967.967Z" transform="translate(68.254 650.517)"/></g></svg>