<svg xmlns="http://www.w3.org/2000/svg" width="120" height="120" viewBox="0 0 120 120"><defs><style>.a,.b{fill:#1da772;}.a{opacity:0.1;}</style></defs><g transform="translate(-576 -1379)"><circle class="a" cx="60" cy="60" r="60" transform="translate(576 1379)"/><g transform="translate(444.794 1327.754)"><path class="b" d="M207.156,468.907A4.67,4.67,0,0,1,212,473.384v18.993a4.67,4.67,0,0,1-4.842,4.478H176.191a4.672,4.672,0,0,1-4.842-4.478v-18.99a4.674,4.674,0,0,1,4.842-4.478h30.965Zm-13.441,13.848a3.742,3.742,0,0,0,2.036-3.274,4.091,4.091,0,0,0-8.159,0,3.735,3.735,0,0,0,2.042,3.271v4.987a2.045,2.045,0,0,0,4.078,0v-4.984Z" transform="translate(0 -360.367)"/><path class="b" d="M281.764,111.266c0-.153-.008-11.466,0-11.618a10.149,10.149,0,0,1,9.969-9.775,10.035,10.035,0,0,1,9.979,10.093v11.3l4,2.352V100.1a13.978,13.978,0,1,0-27.948-.453v11.616h4Z" transform="translate(-100.062)"/></g></g></svg>