<svg xmlns="http://www.w3.org/2000/svg" width="176" height="176" viewBox="0 0 176 176"><defs><style>.a{fill:#1da772;}.b{fill:#fff;}</style></defs><g transform="translate(-288 -1351)"><circle class="a" cx="88" cy="88" r="88" transform="translate(288 1351)"/><g transform="translate(182.76 1325.963)"><path class="b" d="M210.486,468.907a5.1,5.1,0,0,1,5.292,4.894V494.56a5.1,5.1,0,0,1-5.292,4.894H176.641a5.106,5.106,0,0,1-5.292-4.894V473.8a5.108,5.108,0,0,1,5.292-4.894h33.845ZM195.8,484.043a4.09,4.09,0,0,0,2.226-3.578,4.472,4.472,0,0,0-8.918,0,4.083,4.083,0,0,0,2.232,3.575v5.451a2.235,2.235,0,0,0,4.457,0v-5.448Z" transform="translate(0 -358.241)"/><path class="b" d="M282.137,113.646c0-.167-.008-12.532,0-12.7a11.093,11.093,0,0,1,10.9-10.684,10.968,10.968,0,0,1,10.907,11.032v12.354l4.368,2.571V101.445c0-8.959-6.839-15.771-15.272-15.771A15.357,15.357,0,0,0,277.76,100.95v12.7h4.377Z" transform="translate(-99.471 0)"/></g></g></svg>