<svg t="1701852542655" class="icon" viewBox="0 0 1024 1024" version="1.1" xmlns="http://www.w3.org/2000/svg" p-id="26122" width="64" height="64"><path d="M897.6 110.5c-14.1-9.1-33.1-9.2-47.4-0.3-0.2 0.1-0.4 0.2-0.6 0.4-13.9 8.2-63.8 36.4-124.6 54.7-82.2 24.7-147.8 21.5-195.1-9.6-42.7-28-88.9-45.7-137.4-52.5-38.9-5.5-79.3-4-120.1 4.5-26.5 5.5-46.8 13.3-64.2 20.2l1.5 458.8c46.2-40.9 249.8-59.6 283-29.5 37.7 34.1 80.9 44.6 154.4 54.2 84.5 11.1 171.5-30.2 204.6-43l0.4-0.2c0.4-0.2 0.7-0.3 0.9-0.3l1.5-0.6 0.3-0.1c14.5-6.8 24.3-20.3 26.3-36.1l37.2-378.3 0.1-0.9c0.9-16.7-7-32.6-20.8-41.4zM145.6 958.5c-22.1 0-40-17.9-40-40v-813c0-22.1 17.9-40 40-40s40 17.9 40 40v813c0 22.1-18 40-40 40z" p-id="26123" data-spm-anchor-id="a313x.search_index.0.i32.29f93a81hzRlRI" class="" fill="#d81e06"></path><path d="M560.3 805.4c-1.5-1.1-6.7-5-14.3-10.5 1.4-10.7 1.6-21.5 0.6-32.2 8.6-5.9 14.1-9.7 14.1-9.8 17-9.6 23.1-31.1 13.6-48.1L555.9 672c-3-5.4-7.5-10-12.8-13.2-10.8-6.4-24.4-6.6-34.4-0.9 0 0-6.5 2.8-16.6 7.3-8.6-6.5-17.9-12-27.7-16.4-0.8-10.4-1.4-17.2-1.4-17.2 0.1-12.6-6.5-24.4-17.4-30.9-5.3-3.1-11.3-4.8-17.5-4.9l-37.5-0.5c-19.5-0.3-35.6 15.4-35.8 33.8 0 0-0.9 7.7-2.1 19.6-4.2 1.8-8.2 3.7-12.2 5.9-4.9 2.7-9.6 5.8-14 9.1-10.4-5-17.3-8.2-17.4-8.2-16.7-9.9-38.4-4.3-48.4 12.4l-19.2 32.2c-10 16.8-4.5 38.5 11.4 47.9 0 0 6.8 5 17.3 12.7-1 9.4-1.1 18.9-0.2 28.3-10.2 7-17 11.8-17 11.8-8.2 4.6-14.2 12.2-16.7 21.2-2.6 9-1.4 18.7 3.2 26.9l18.3 32.8c3 5.4 7.5 10 12.8 13.2 10.8 6.4 24.4 6.6 34.4 0.9 0 0 7.8-3.4 19.9-8.7 7.6 5.7 15.7 10.6 24.2 14.7 1 12.3 1.7 20.4 1.7 20.4-0.1 12.6 6.5 24.4 17.4 30.9 5.3 3.1 11.4 4.8 17.5 4.9l37.5 0.5c9.4 0.2 18.5-3.5 25.2-10 6.6-6.4 10.4-15.1 10.7-24.3 0.2-1.9 1-9.1 2.1-19.5 5.2-2.1 10.2-4.5 15.1-7.2 3.9-2.2 7.8-4.7 11.4-7.3 10.2 4.9 16.9 8 17 8 16.8 9.9 38.5 4.4 48.4-12.3l19.2-32.2c4.8-8.1 6.2-17.7 3.9-26.8-2.4-9-8.1-16.7-15.9-21.5z m-283.9 65.7l-0.9-1.7 4.3 5.6c-1.4-1-2.5-2.3-3.4-3.9z m130.3-25.6c-37.9 0-68.7-30.7-68.7-68.7s30.7-68.7 68.7-68.7c37.9 0 68.7 30.7 68.7 68.7s-30.8 68.7-68.7 68.7z" p-id="26124" fill="#d81e06"></path></svg>