<svg xmlns="http://www.w3.org/2000/svg" width="40" height="39.938" viewBox="0 0 40 39.938"><defs><style>.a{fill:#1da772;}</style></defs><path class="a" d="M10.812,3.083A19.945,19.945,0,0,0,0,20.8C0,38.754,21.887,47.438,34.242,34.614,50.035,18.239,30.394-6.968,10.812,3.083Zm20.2,17.672a1.989,1.989,0,0,1-1.988,1.988H21.988v7.039a1.988,1.988,0,1,1-3.977,0V22.743H10.973a1.988,1.988,0,0,1,0-3.977h7.039V11.727a1.988,1.988,0,1,1,3.977,0v7.039h7.039a1.989,1.989,0,0,1,1.988,1.988Z" transform="translate(0 -0.785)"/></svg>