<svg t="1685093558263" class="icon" viewBox="0 0 1024 1024" version="1.1" xmlns="http://www.w3.org/2000/svg" p-id="5114" width="64" height="64"><path d="M709.800739 590.537024H460.631158c-15.349256 0-27.730988 12.381733-27.730988 27.62866s12.484061 27.62866 27.730988 27.62866h249.169581c15.246927 0 27.62866-12.381733 27.730989-27.62866 0-15.246927-12.484061-27.62866-27.730989-27.62866z" fill="#020202" p-id="5115"></path><path d="M709.800739 64.159888H377.64285c-58.531828 0-110.719296 53.722394-110.719296 110.719297l-32.02878 0.818627c-58.531828 0-106.421505 53.006096-106.421505 110.002997v553.596483c0 56.996902 52.187469 110.719296 110.719296 110.719296h415.248526c58.531828 0 110.719296-53.722394 110.719297-110.719296h27.730988C851.423204 839.297292 903.610673 785.574898 903.610673 728.577995V286.212451l-193.809934-222.052563z m0 56.178275l138.450285 165.260318h-83.090636c-29.470571 0-55.359648-53.517738-55.359649-82.27201v-82.988308z m-55.257319 774.216449H239.294894c-29.061257 0-55.359648-27.117018-55.359649-55.359648v-553.596483c0-28.140302 23.637854-54.438693 52.699111-54.438693l30.289198-0.920955v498.236834c0 56.996902 52.187469 110.719296 110.719296 110.719297h332.260218c0 28.24263-26.298391 55.359648-55.359648 55.359648z m193.707604-166.078945c0 28.24263-26.298391 55.359648-55.359648 55.359648H377.64285c-29.061257 0-55.359648-27.117018-55.359648-55.359648v-553.596482c0-28.24263 26.298391-55.359648 55.359648-55.359649h276.695913c-0.409313 63.750575 0 111.435595 0 111.435595 0 57.508544 51.778155 110.002998 110.719296 110.002998h83.192965v387.517538z" fill="#020202" p-id="5116"></path><path d="M709.800739 452.291396H460.631158c-15.349256 0-27.730988 12.381733-27.730988 27.62866s12.484061 27.62866 27.730988 27.62866h249.169581c15.246927 0 27.62866-12.381733 27.730989-27.62866 0-15.246927-12.484061-27.62866-27.730989-27.62866z" fill="#020202" p-id="5117"></path></svg>