<svg t="1683786328576" class="icon" viewBox="0 0 1024 1024" version="1.1" xmlns="http://www.w3.org/2000/svg" p-id="2549" width="64" height="64"><path d="M757.27 673.45c-3.8 0-7.62-1.32-10.71-4.02-6.78-5.91-7.48-16.2-1.58-22.98 31.05-35.6 46.73-81.1 44.12-128.1-2.62-47.02-23.23-90.5-58.02-122.44-6.63-6.09-7.08-16.39-0.99-23.02 6.05-6.64 16.4-7.07 23-0.99 41.11 37.72 65.43 89.08 68.52 144.63 3.1 55.55-15.4 109.29-52.07 151.33-3.22 3.7-7.74 5.59-12.27 5.59zM859.36 745.81c-3.58 0-7.19-1.18-10.21-3.61-7-5.64-8.1-15.9-2.45-22.9 47.39-58.79 71.19-132.62 67.03-207.87-4.18-75.25-36.02-145.97-89.65-199.17-6.4-6.33-6.43-16.65-0.1-23.04 6.35-6.4 16.66-6.41 23.04-0.1C906.38 348 941.63 426.3 946.25 509.6c4.63 83.32-21.72 165.05-74.18 230.13-3.23 4-7.96 6.08-12.71 6.08z" fill="#f4ea2a" p-id="2550"></path><path d="M392.66 529.47c-2.62 0-5.26-0.64-7.66-1.92a16.28 16.28 0 0 1-8.63-14.37V80.29c0-6.05 3.35-11.6 8.7-14.41a16.272 16.272 0 0 1 16.81 0.99L720.6 285.7c4.44 3.05 7.1 8.11 7.06 13.51a16.286 16.286 0 0 1-7.21 13.44L401.74 526.7a16.285 16.285 0 0 1-9.08 2.77z m16.29-418.23v371.37l273.42-183.64-273.42-187.73z" fill="#f4ea2a" p-id="2551"></path><path d="M392.66 960c-2.62 0-5.26-0.64-7.66-1.92a16.28 16.28 0 0 1-8.63-14.37V510.82c0-6.05 3.35-11.6 8.7-14.41a16.294 16.294 0 0 1 16.81 0.99L720.6 716.23c4.44 3.05 7.1 8.11 7.06 13.51a16.286 16.286 0 0 1-7.21 13.44L401.74 957.23a16.285 16.285 0 0 1-9.08 2.77z m16.29-418.23v371.37L682.37 729.5 408.95 541.77z" fill="#f4ea2a" p-id="2552"></path><path d="M392.65 527.11c-3.75 0-7.52-1.29-10.6-3.93L82.92 266.54c-6.83-5.85-7.61-16.14-1.75-22.97 5.86-6.83 16.14-7.61 22.97-1.75l299.12 256.65c6.82 5.85 7.61 16.14 1.75 22.97-3.21 3.75-7.77 5.67-12.36 5.67z" fill="#f4ea2a" p-id="2553"></path><path d="M93.54 784.6c-4.59 0-9.15-1.92-12.37-5.68-5.86-6.83-5.08-17.12 1.75-22.97L382.04 499.3c6.84-5.88 17.12-5.08 22.97 1.75 5.86 6.83 5.07 17.12-1.75 22.97L104.14 780.67a16.194 16.194 0 0 1-10.6 3.93z" fill="#f4ea2a" p-id="2554"></path></svg>